<svg xmlns="http://www.w3.org/2000/svg" viewBox="0 0 245.37 40.9"><defs><style>.cls-1{fill:#003668;}.cls-2{fill:#e6002d;}.cls-3{font-size:28.91px;fill:#595757;font-family:Government_16040911;}</style></defs><title>icon4자산 4</title><g id="레이어_2" data-name="레이어 2"><g id="레이어_2-2" data-name="레이어 2"><path class="cls-1" d="M31.58,19.52a7.38,7.38,0,0,0-10.49,2.2,7.38,7.38,0,0,1-13.34-2l0-.07a.36.36,0,0,0,0-.1,9.51,9.51,0,0,1-.38-2.93c0-6.62,6.79-14,16.57-14A18.64,18.64,0,0,1,41.1,14.46c0-.07-.05-.14-.08-.22A21.08,21.08,0,0,0,0,21.08C0,31.49,7.51,40.39,17.92,40.39A16.92,16.92,0,0,0,34.36,29.32a8.12,8.12,0,0,0-2.78-9.8"/><path class="cls-2" d="M41.23,14.88A18.57,18.57,0,0,0,23.88,2.61c-9.77,0-16.56,7.36-16.56,14a9.51,9.51,0,0,0,.38,2.93A6,6,0,0,1,7.5,18c0-6.89,6.9-11.67,14-11.67A17.39,17.39,0,0,1,38.88,23.73,19.15,19.15,0,0,1,28.25,40.9h0A21.07,21.07,0,0,0,42.16,21.08a20.72,20.72,0,0,0-.93-6.2"/><text class="cls-3" transform="translate(52.16 30.92)">조달청 정보검색</text></g></g></svg>